name GIL04_xslow1EmgEnv.mot
datacolumns 51
datarows 8
range 0.34259263 0.34907410
endheader
                time	   rect_fem_l_emgRec	   rect_fem_l_emgEnv	   rect_fem_l_emgAve	   rect_fem_l_emgSDp	   rect_fem_l_emgSDm	   rect_fem_r_emgRec	   rect_fem_r_emgEnv	   rect_fem_r_emgAve	   rect_fem_r_emgSDp	   rect_fem_r_emgSDm	   med_hams_l_emgRec	   med_hams_l_emgEnv	   med_hams_l_emgAve	   med_hams_l_emgSDp	   med_hams_l_emgSDm	   med_hams_r_emgRec	   med_hams_r_emgEnv	   med_hams_r_emgAve	   med_hams_r_emgSDp	   med_hams_r_emgSDm	   lat_hams_l_emgRec	   lat_hams_l_emgEnv	   lat_hams_l_emgAve	   lat_hams_l_emgSDp	   lat_hams_l_emgSDm	   lat_hams_r_emgRec	   lat_hams_r_emgEnv	   lat_hams_r_emgAve	   lat_hams_r_emgSDp	   lat_hams_r_emgSDm	    tib_ant_l_emgRec	    tib_ant_l_emgEnv	    tib_ant_l_emgAve	    tib_ant_l_emgSDp	    tib_ant_l_emgSDm	    tib_ant_r_emgRec	    tib_ant_r_emgEnv	    tib_ant_r_emgAve	    tib_ant_r_emgSDp	    tib_ant_r_emgSDm	    gas_sol_l_emgRec	    gas_sol_l_emgEnv	    gas_sol_l_emgAve	    gas_sol_l_emgSDp	    gas_sol_l_emgSDm	    gas_sol_r_emgRec	    gas_sol_r_emgEnv	    gas_sol_r_emgAve	    gas_sol_r_emgSDp	    gas_sol_r_emgSDm	
          0.34259263	          0.00627089	          0.09812700	          0.10087414	          0.18664368	          0.01510460	          0.02168850	          0.12241055	          0.07853506	          0.14043599	          0.01663412	          0.40068682	          0.42131844	          0.20816471	          0.49640752	         -0.08007811	          0.16736785	          0.25605074	          0.24673836	          0.26291400	          0.23056272	          0.06366783	          0.11071302	          0.23684108	          0.56238604	         -0.08870387	          0.03383139	          0.14675877	          0.06157091	          0.13238951	         -0.00924770	          0.09014979	          0.43191890	          0.41560200	          0.58766150	          0.24354249	          0.31319687	          0.31535790	          0.26552773	          0.48214634	          0.04890911	          0.01533055	          0.06880823	          0.09977448	          0.19589880	          0.00365016	          0.04746270	          0.25715681	          0.35412359	          0.47801649	          0.23023070	
          0.34351856	          0.02686249	          0.09718106	          0.10051828	          0.18530633	          0.01573022	          0.03845061	          0.12386968	          0.07833169	          0.13992584	          0.01673753	          0.27935668	          0.41793637	          0.20709863	          0.49456123	         -0.08036396	          0.10324355	          0.25217490	          0.24499613	          0.26005869	          0.22993357	          0.01567453	          0.10920033	          0.23590888	          0.55988525	         -0.08806749	          0.06794919	          0.14682222	          0.06068490	          0.13028394	         -0.00891414	          0.07877936	          0.43424724	          0.41551107	          0.58682175	          0.24420039	          0.25266399	          0.32210075	          0.26584896	          0.48306276	          0.04863517	          0.01100368	          0.06801844	          0.09933084	          0.19468199	          0.00397968	          0.06984514	          0.25762253	          0.35557222	          0.48004784	          0.23109661	
          0.34444448	          0.05488929	          0.09626338	          0.10017227	          0.18398773	          0.01635680	          0.08595016	          0.12531335	          0.07812567	          0.13941016	          0.01684118	          0.13680361	          0.41429529	          0.20602469	          0.49269392	         -0.08064453	          0.26329447	          0.24819609	          0.24327318	          0.25723433	          0.22931204	          0.02654671	          0.10762009	          0.23497097	          0.55736871	         -0.08742677	          0.08117667	          0.14677749	          0.05980933	          0.12820158	         -0.00858293	          0.01464178	          0.43651995	          0.41541183	          0.58597001	          0.24485365	          0.01745283	          0.32906458	          0.26617220	          0.48397173	          0.04837267	          0.00992527	          0.06722293	          0.09889281	          0.19347487	          0.00431075	          0.10104708	          0.25818075	          0.35702235	          0.48208584	          0.23195885	
          0.34537041	          0.07531267	          0.09537487	          0.09983610	          0.18268791	          0.01698428	          0.09574301	          0.12673833	          0.07791705	          0.13888902	          0.01694507	          0.00759539	          0.41040041	          0.20494291	          0.49080572	         -0.08091989	          0.36053019	          0.24411992	          0.24156959	          0.25444118	          0.22869801	          0.03893516	          0.10597477	          0.23402739	          0.55483663	         -0.08678186	          0.04815315	          0.14662525	          0.05894421	          0.12614249	         -0.00825407	          0.06962729	          0.43874784	          0.41530433	          0.58510642	          0.24550225	          0.07608412	          0.33624809	          0.26649725	          0.48487300	          0.04812151	          0.03129332	          0.06642332	          0.09846035	          0.19227737	          0.00464334	          0.23008597	          0.25883554	          0.35847369	          0.48413013	          0.23281725	
          0.34629634	          0.09207868	          0.09451638	          0.09950981	          0.18140703	          0.01761260	          0.05228114	          0.12814138	          0.07770581	          0.13836245	          0.01704916	          0.10576785	          0.40625738	          0.20385353	          0.48889707	         -0.08119000	          0.11346418	          0.23995237	          0.23988542	          0.25167948	          0.22809136	          0.04257114	          0.10426700	          0.23307817	          0.55228929	         -0.08613296	          0.03434796	          0.14636647	          0.05808960	          0.12410677	         -0.00792756	          0.13550176	          0.44094199	          0.41518867	          0.58423115	          0.24614619	          0.07502153	          0.34364950	          0.26682395	          0.48576635	          0.04788154	          0.03458006	          0.06562133	          0.09803341	          0.19108946	          0.00497737	          0.17133363	          0.25959053	          0.35992613	          0.48618051	          0.23367175	
          0.34722227	          0.08438214	          0.09368873	          0.09919343	          0.18014523	          0.01824164	          0.03671812	          0.12951927	          0.07749201	          0.13783058	          0.01715345	          0.14775077	          0.40187232	          0.20275657	          0.48696809	         -0.08145495	          0.00278987	          0.23569979	          0.23822077	          0.24894952	          0.22749201	          0.04203354	          0.10249956	          0.23212345	          0.54972677	         -0.08547987	          0.02010067	          0.14600232	          0.05724550	          0.12209448	         -0.00760347	          0.12614831	          0.44311368	          0.41506478	          0.58334416	          0.24678540	          0.05015016	          0.35126646	          0.26715222	          0.48665170	          0.04765274	          0.03532416	          0.06481874	          0.09761193	          0.18991106	          0.00531279	          0.02282673	          0.26044895	          0.36137947	          0.48823667	          0.23452228	
          0.34814817	          0.04467885	          0.09289269	          0.09888699	          0.17890266	          0.01887131	          0.01232231	          0.13086879	          0.07727566	          0.13729346	          0.01725787	          0.17979279	          0.39725176	          0.20165220	          0.48501909	         -0.08171469	          0.19797853	          0.23136888	          0.23657565	          0.24625152	          0.22689977	          0.03589584	          0.10067539	          0.23116326	          0.54714936	         -0.08482283	          0.04946445	          0.14553425	          0.05641196	          0.12010572	         -0.00728180	          0.11551075	          0.44527437	          0.41493282	          0.58244576	          0.24741988	          0.02538974	          0.35909604	          0.26748186	          0.48752870	          0.04743503	          0.03294787	          0.06401743	          0.09719586	          0.18874218	          0.00564954	          0.22763764	          0.26141358	          0.36283362	          0.49029844	          0.23536880	
          0.34907410	          0.01175473	          0.09212896	          0.09859047	          0.17767936	          0.01950158	          0.05244258	          0.13218673	          0.07705677	          0.13675111	          0.01736242	          0.21193579	          0.39240264	          0.20054053	          0.48305024	         -0.08196919	          0.40905409	          0.22696668	          0.23495013	          0.24358567	          0.22631458	          0.03547370	          0.09879753	          0.23019768	          0.54455717	         -0.08416180	          0.08730365	          0.14496394	          0.05558894	          0.11814045	         -0.00696256	          0.06299637	          0.44743563	          0.41479278	          0.58153592	          0.24804963	          0.01492648	          0.36713471	          0.26781282	          0.48839729	          0.04722835	          0.02797948	          0.06321933	          0.09678517	          0.18758269	          0.00598765	          0.32287642	          0.26248678	          0.36428839	          0.49236557	          0.23621121	
